<svg width="6" height="11" viewBox="0 0 6 11" fill="none" xmlns="http://www.w3.org/2000/svg">
<path d="M5.62637 4.53863L1.30591 0.225793C1.23494 0.154247 1.15052 0.0974593 1.0575 0.0587058C0.96448 0.0199524 0.864708 0 0.763939 0C0.663169 0 0.563397 0.0199524 0.470378 0.0587058C0.377359 0.0974593 0.292933 0.154247 0.221972 0.225793C0.0798001 0.368813 0 0.562281 0 0.763943C0 0.965605 0.0798001 1.15907 0.221972 1.30209L4.00047 5.11876L0.221972 8.89726C0.0798001 9.04028 0 9.23375 0 9.43541C0 9.63707 0.0798001 9.83054 0.221972 9.97356C0.292668 10.0457 0.376974 10.1031 0.470005 10.1424C0.563037 10.1817 0.662944 10.2021 0.763939 10.2026C0.864933 10.2021 0.96484 10.1817 1.05787 10.1424C1.1509 10.1031 1.23521 10.0457 1.30591 9.97356L5.62637 5.66073C5.70386 5.58925 5.76569 5.50249 5.80799 5.40593C5.85028 5.30937 5.87212 5.2051 5.87212 5.09968C5.87212 4.99426 5.85028 4.88999 5.80799 4.79342C5.76569 4.69686 5.70386 4.61011 5.62637 4.53863Z" fill="#00984A"/>
</svg>
